<svg version="1.1" id="Layer_1" xmlns="http://www.w3.org/2000/svg" xmlns:xlink="http://www.w3.org/1999/xlink" x="0px" y="0px"
	 width="100%" viewBox="0 0 1200 1200" enable-background="new 0 0 1200 1200" xml:space="preserve">
<path fill="#FDC725" opacity="1.000000" stroke="none" 
	d="
M754.000000,1201.000000 
	C502.666656,1201.000000 251.833328,1201.000000 1.000000,1201.000000 
	C1.000000,801.000000 1.000000,401.000000 1.000000,1.000000 
	C401.000000,1.000000 801.000000,1.000000 1201.000000,1.000000 
	C1201.000000,401.000000 1201.000000,801.000000 1201.000000,1201.000000 
	C1052.166626,1201.000000 903.333313,1201.000000 754.000000,1201.000000 
M575.820435,695.994629 
	C587.033691,695.332642 598.305237,695.182068 609.449158,693.911621 
	C641.199951,690.292053 670.345886,679.298706 696.868835,661.490723 
	C703.747925,656.871948 710.361023,651.849609 717.007446,646.893494 
	C729.622070,637.487122 742.947266,628.852295 754.576233,618.346130 
	C774.249878,600.572144 788.884155,578.847229 799.827759,554.621948 
	C809.646423,532.886719 815.486145,510.088257 816.817993,486.418762 
	C818.117126,463.331055 815.692261,440.524353 809.235291,418.040283 
	C799.944519,385.688660 783.739502,357.523712 760.625549,333.340973 
	C741.837830,313.684570 719.726196,298.584564 694.650208,287.945831 
	C670.807739,277.830444 645.926147,272.518921 620.027100,271.992798 
	C603.460388,271.656250 587.120300,273.364105 570.933899,276.964996 
	C549.060120,281.831146 528.576233,290.165070 509.662415,302.033478 
	C500.162323,307.994751 491.860931,315.883301 482.300598,321.727661 
	C467.898102,330.532074 454.843658,340.746246 442.899567,352.667603 
	C431.930206,363.616089 422.351074,375.579407 414.238678,388.676178 
	C404.074768,405.085022 395.816254,422.518005 391.509521,441.376251 
	C388.215454,455.800232 385.866150,470.507141 384.221008,485.213989 
	C383.310974,493.349243 384.443970,501.766113 385.147919,510.014099 
	C385.875641,518.540833 386.511658,527.172607 388.395752,535.484619 
	C393.294891,557.098572 400.831207,577.783936 412.516571,596.774841 
	C446.610992,652.184326 495.895599,684.526794 560.232056,693.979248 
	C565.104980,694.695190 569.996094,695.286682 575.820435,695.994629 
M463.930115,838.002686 
	C471.692322,838.002686 479.454559,838.002686 488.253265,838.002686 
	C474.863098,819.693542 462.050995,802.174805 449.122406,784.496826 
	C459.970825,773.299133 470.598145,762.329651 481.360901,751.220337 
	C476.297455,747.335266 470.915588,743.205933 465.268738,738.873230 
	C452.004913,751.843201 438.887390,764.670105 424.806885,778.438660 
	C424.806885,765.106934 424.806885,753.215515 424.806885,741.270020 
	C417.239868,741.270020 410.164734,741.270020 403.018005,741.270020 
	C403.018005,773.598511 403.018005,805.654175 403.018005,837.695374 
	C410.427795,837.695374 417.511444,837.695374 424.971619,837.695374 
	C424.971619,830.263550 425.623779,823.058289 424.797577,816.026611 
	C423.877319,808.194458 428.503296,804.440674 433.657379,800.249756 
	C441.910614,811.950195 449.899658,823.419739 458.103394,834.733643 
	C459.188049,836.229492 461.366821,836.931946 463.930115,838.002686 
M592.928040,776.583679 
	C580.783813,762.613770 555.169250,764.779297 543.339172,777.135681 
	C530.309021,790.745422 530.248230,815.931458 543.364136,828.511902 
	C555.986694,840.619080 584.787109,842.797241 599.058960,832.602966 
	C599.980713,831.944580 600.913391,830.036072 600.603882,829.132996 
	C599.067749,824.650635 597.116211,820.310669 595.326416,815.957764 
	C573.738220,823.696655 559.920593,821.051514 558.433350,808.672607 
	C572.888672,808.672607 587.281372,808.672607 601.749146,808.672607 
	C602.240784,796.903992 600.916931,786.183289 592.928040,776.583679 
M690.635132,823.821716 
	C702.741272,841.971008 734.414062,842.519897 750.176941,832.665222 
	C751.162292,832.049133 752.068848,829.854675 751.726562,828.819824 
	C750.279724,824.446350 748.346069,820.233948 746.603760,815.995239 
	C724.072510,823.490051 712.218201,821.294189 709.465515,808.825806 
	C723.963684,808.825806 738.355774,808.825806 752.968689,808.825806 
	C752.968689,805.666626 753.085388,803.013733 752.950989,800.373596 
	C751.243958,766.852234 722.515991,761.641663 703.431946,770.875977 
	C685.228394,779.684387 679.201599,804.118469 690.635132,823.821716 
M610.625793,781.030273 
	C617.498596,798.853577 624.318237,816.697876 631.342529,834.461243 
	C631.920532,835.923035 633.828735,837.750854 635.221863,837.842468 
	C641.006165,838.222900 646.830078,838.002319 652.823608,838.002319 
	C661.838135,815.042419 670.777710,792.273254 679.861206,769.137695 
	C671.907043,769.137695 664.775146,769.137695 657.348206,769.137695 
	C652.779358,782.057678 648.221008,794.947876 643.165039,809.245178 
	C637.960510,794.223633 633.216736,780.531860 628.355591,766.501526 
	C621.288879,768.586975 614.654968,770.544678 607.539001,772.644653 
	C608.538391,775.446289 609.412170,777.895935 610.625793,781.030273 
M521.125793,760.500122 
	C521.125793,753.416016 521.125793,746.331909 521.125793,739.402344 
	C513.305542,739.402344 506.249146,739.402344 499.300659,739.402344 
	C499.300659,772.394104 499.300659,804.981995 499.300659,837.688660 
	C506.642059,837.688660 513.702087,837.688660 521.125793,837.688660 
	C521.125793,812.085510 521.125793,786.792786 521.125793,760.500122 
M778.710022,774.635437 
	C774.708313,768.130310 773.848755,767.828186 764.275513,769.594543 
	C764.275513,792.283691 764.275513,814.982239 764.275513,837.663635 
	C771.680359,837.663635 778.743774,837.663635 786.105347,837.663635 
	C786.105347,825.528015 786.235107,813.726135 786.023804,801.930420 
	C785.962952,798.535828 786.821167,796.074341 789.865967,794.627319 
	C796.061951,791.682678 802.302795,788.832520 808.838745,785.797852 
	C807.575623,780.661621 806.163452,774.919189 804.707703,768.999451 
	C795.604004,769.611755 788.721680,774.314880 781.558899,778.960571 
	C780.680664,777.665710 779.869202,776.469421 778.710022,774.635437 
z"/>
<path fill="#15652E" opacity="1.000000" stroke="none" 
	d="
M575.349609,695.965332 
	C569.996094,695.286682 565.104980,694.695190 560.232056,693.979248 
	C495.895599,684.526794 446.610992,652.184326 412.516571,596.774841 
	C400.831207,577.783936 393.294891,557.098572 388.395752,535.484619 
	C386.511658,527.172607 385.875641,518.540833 385.147919,510.014099 
	C384.443970,501.766113 383.310974,493.349243 384.221008,485.213989 
	C385.866150,470.507141 388.215454,455.800232 391.509521,441.376251 
	C395.816254,422.518005 404.074768,405.085022 414.238678,388.676178 
	C422.351074,375.579407 431.930206,363.616089 442.899567,352.667603 
	C454.843658,340.746246 467.898102,330.532074 482.300598,321.727661 
	C491.860931,315.883301 500.162323,307.994751 509.662415,302.033478 
	C528.576233,290.165070 549.060120,281.831146 570.933899,276.964996 
	C587.120300,273.364105 603.460388,271.656250 620.027100,271.992798 
	C645.926147,272.518921 670.807739,277.830444 694.650208,287.945831 
	C719.726196,298.584564 741.837830,313.684570 760.625549,333.340973 
	C783.739502,357.523712 799.944519,385.688660 809.235291,418.040283 
	C815.692261,440.524353 818.117126,463.331055 816.817993,486.418762 
	C815.486145,510.088257 809.646423,532.886719 799.827759,554.621948 
	C788.884155,578.847229 774.249878,600.572144 754.576233,618.346130 
	C742.947266,628.852295 729.622070,637.487122 717.007446,646.893494 
	C710.361023,651.849609 703.747925,656.871948 696.868835,661.490723 
	C670.345886,679.298706 641.199951,690.292053 609.449158,693.911621 
	C598.305237,695.182068 587.033691,695.332642 575.349609,695.965332 
M431.398712,403.067963 
	C424.951752,419.287170 420.437317,436.174805 419.291290,453.454803 
	C417.781799,476.215851 418.634033,498.971313 424.645020,521.375854 
	C433.777252,555.414001 449.997650,585.332458 474.654938,610.469421 
	C513.845764,650.422607 561.865173,670.159241 617.571655,670.760376 
	C630.030029,670.894897 642.719421,669.035583 654.960815,666.466187 
	C704.468811,656.074951 744.504883,630.605652 774.766174,589.816528 
	C797.225525,559.543579 809.841736,525.603210 812.844604,488.224426 
	C814.236572,470.897949 813.136353,453.456512 809.854614,436.324402 
	C803.067261,400.892212 787.723145,369.454285 763.820862,342.494751 
	C751.628845,328.743286 737.868042,316.550751 722.189636,306.645081 
	C693.155640,288.301239 661.480042,277.938324 627.303040,276.128265 
	C614.160950,275.432220 600.850586,276.892059 587.676941,278.051819 
	C567.665039,279.813568 548.794189,286.076324 530.820007,294.759399 
	C509.058075,305.272339 489.656799,319.113220 473.116730,336.960876 
	C455.245514,356.244843 441.151794,377.795959 431.398712,403.067963 
z"/>
<path fill="#13652E" opacity="1.000000" stroke="none" 
	d="
M463.484497,838.002319 
	C461.366821,836.931946 459.188049,836.229492 458.103394,834.733643 
	C449.899658,823.419739 441.910614,811.950195 433.657379,800.249756 
	C428.503296,804.440674 423.877319,808.194458 424.797577,816.026611 
	C425.623779,823.058289 424.971619,830.263550 424.971619,837.695374 
	C417.511444,837.695374 410.427795,837.695374 403.018005,837.695374 
	C403.018005,805.654175 403.018005,773.598511 403.018005,741.270020 
	C410.164734,741.270020 417.239868,741.270020 424.806885,741.270020 
	C424.806885,753.215515 424.806885,765.106934 424.806885,778.438660 
	C438.887390,764.670105 452.004913,751.843201 465.268738,738.873230 
	C470.915588,743.205933 476.297455,747.335266 481.360901,751.220337 
	C470.598145,762.329651 459.970825,773.299133 449.122406,784.496826 
	C462.050995,802.174805 474.863098,819.693542 488.253265,838.002686 
	C479.454559,838.002686 471.692322,838.002686 463.484497,838.002319 
z"/>
<path fill="#15652E" opacity="1.000000" stroke="none" 
	d="
M593.175415,776.841919 
	C600.916931,786.183289 602.240784,796.903992 601.749146,808.672607 
	C587.281372,808.672607 572.888672,808.672607 558.433350,808.672607 
	C559.920593,821.051514 573.738220,823.696655 595.326416,815.957764 
	C597.116211,820.310669 599.067749,824.650635 600.603882,829.132996 
	C600.913391,830.036072 599.980713,831.944580 599.058960,832.602966 
	C584.787109,842.797241 555.986694,840.619080 543.364136,828.511902 
	C530.248230,815.931458 530.309021,790.745422 543.339172,777.135681 
	C555.169250,764.779297 580.783813,762.613770 593.175415,776.841919 
M558.965149,795.953003 
	C565.932312,795.953003 572.899536,795.953003 579.887756,795.953003 
	C579.353149,789.191589 575.138123,785.212585 568.916199,785.282654 
	C562.678223,785.352905 558.290161,789.579773 558.965149,795.953003 
z"/>
<path fill="#14652E" opacity="1.000000" stroke="none" 
	d="
M690.422485,823.524475 
	C679.201599,804.118469 685.228394,779.684387 703.431946,770.875977 
	C722.515991,761.641663 751.243958,766.852234 752.950989,800.373596 
	C753.085388,803.013733 752.968689,805.666626 752.968689,808.825806 
	C738.355774,808.825806 723.963684,808.825806 709.465515,808.825806 
	C712.218201,821.294189 724.072510,823.490051 746.603760,815.995239 
	C748.346069,820.233948 750.279724,824.446350 751.726562,828.819824 
	C752.068848,829.854675 751.162292,832.049133 750.176941,832.665222 
	C734.414062,842.519897 702.741272,841.971008 690.422485,823.524475 
M708.976746,794.855652 
	C716.448975,795.392761 723.921143,795.929871 731.738342,796.491760 
	C729.847351,788.748718 726.513000,785.603943 720.854370,785.300415 
	C715.356506,785.005493 711.470459,787.868896 708.976746,794.855652 
z"/>
<path fill="#15652E" opacity="1.000000" stroke="none" 
	d="
M610.455933,780.687927 
	C609.412170,777.895935 608.538391,775.446289 607.539001,772.644653 
	C614.654968,770.544678 621.288879,768.586975 628.355591,766.501526 
	C633.216736,780.531860 637.960510,794.223633 643.165039,809.245178 
	C648.221008,794.947876 652.779358,782.057678 657.348206,769.137695 
	C664.775146,769.137695 671.907043,769.137695 679.861206,769.137695 
	C670.777710,792.273254 661.838135,815.042419 652.823608,838.002319 
	C646.830078,838.002319 641.006165,838.222900 635.221863,837.842468 
	C633.828735,837.750854 631.920532,835.923035 631.342529,834.461243 
	C624.318237,816.697876 617.498596,798.853577 610.455933,780.687927 
z"/>
<path fill="#12642E" opacity="1.000000" stroke="none" 
	d="
M521.125793,761.000061 
	C521.125793,786.792786 521.125793,812.085510 521.125793,837.688660 
	C513.702087,837.688660 506.642059,837.688660 499.300659,837.688660 
	C499.300659,804.981995 499.300659,772.394104 499.300659,739.402344 
	C506.249146,739.402344 513.305542,739.402344 521.125793,739.402344 
	C521.125793,746.331909 521.125793,753.416016 521.125793,761.000061 
z"/>
<path fill="#13652E" opacity="1.000000" stroke="none" 
	d="
M778.883911,774.954224 
	C779.869202,776.469421 780.680664,777.665710 781.558899,778.960571 
	C788.721680,774.314880 795.604004,769.611755 804.707703,768.999451 
	C806.163452,774.919189 807.575623,780.661621 808.838745,785.797852 
	C802.302795,788.832520 796.061951,791.682678 789.865967,794.627319 
	C786.821167,796.074341 785.962952,798.535828 786.023804,801.930420 
	C786.235107,813.726135 786.105347,825.528015 786.105347,837.663635 
	C778.743774,837.663635 771.680359,837.663635 764.275513,837.663635 
	C764.275513,814.982239 764.275513,792.283691 764.275513,769.594543 
	C773.848755,767.828186 774.708313,768.130310 778.883911,774.954224 
z"/>
<path fill="#FDC725" opacity="1.000000" stroke="none" 
	d="
M431.572327,402.720825 
	C441.151794,377.795959 455.245514,356.244843 473.116730,336.960876 
	C489.656799,319.113220 509.058075,305.272339 530.820007,294.759399 
	C548.794189,286.076324 567.665039,279.813568 587.676941,278.051819 
	C600.850586,276.892059 614.160950,275.432220 627.303040,276.128265 
	C661.480042,277.938324 693.155640,288.301239 722.189636,306.645081 
	C737.868042,316.550751 751.628845,328.743286 763.820862,342.494751 
	C787.723145,369.454285 803.067261,400.892212 809.854614,436.324402 
	C813.136353,453.456512 814.236572,470.897949 812.844604,488.224426 
	C809.841736,525.603210 797.225525,559.543579 774.766174,589.816528 
	C744.504883,630.605652 704.468811,656.074951 654.960815,666.466187 
	C642.719421,669.035583 630.030029,670.894897 617.571655,670.760376 
	C561.865173,670.159241 513.845764,650.422607 474.654938,610.469421 
	C449.997650,585.332458 433.777252,555.414001 424.645020,521.375854 
	C418.634033,498.971313 417.781799,476.215851 419.291290,453.454803 
	C420.437317,436.174805 424.951752,419.287170 431.572327,402.720825 
z"/>
<path fill="#F7C425" opacity="1.000000" stroke="none" 
	d="
M558.539978,795.820190 
	C558.290161,789.579773 562.678223,785.352905 568.916199,785.282654 
	C575.138123,785.212585 579.353149,789.191589 579.887756,795.953003 
	C572.899536,795.953003 565.932312,795.953003 558.539978,795.820190 
z"/>
<path fill="#F7C425" opacity="1.000000" stroke="none" 
	d="
M709.000793,794.436340 
	C711.470459,787.868896 715.356506,785.005493 720.854370,785.300415 
	C726.513000,785.603943 729.847351,788.748718 731.738342,796.491760 
	C723.921143,795.929871 716.448975,795.392761 709.000793,794.436340 
z"/>
</svg>